<mxfile host="app.diagrams.net" modified="2023-01-01T05:55:54.181Z" agent="5.0 (Macintosh; Intel Mac OS X 10_14_6) AppleWebKit/537.36 (KHTML, like Gecko) Chrome/108.0.0.0 Safari/537.36" version="20.7.4" etag="TVTKmUIgIRKtelQ1Iycv" type="github">
  <diagram id="G__Nn8s3KwSkpB4kCdjO" name="第 1 页">
    <mxGraphModel dx="2385" dy="2652" grid="1" gridSize="10" guides="1" tooltips="1" connect="1" arrows="1" fold="1" page="1" pageScale="1" pageWidth="827" pageHeight="1169" math="0" shadow="0">
      <root>
        <mxCell id="0" />
        <mxCell id="1" parent="0" />
        <mxCell id="Vo_8tZld1M_HLgyAk7s2-167" value="" style="rounded=1;whiteSpace=wrap;html=1;strokeWidth=2;fillWeight=4;hachureGap=8;hachureAngle=45;fillColor=#f5f5f5;fontSize=15;fontColor=#333333;strokeColor=#666666;" vertex="1" parent="1">
          <mxGeometry x="40" y="200" width="1120" height="360" as="geometry" />
        </mxCell>
        <mxCell id="Vo_8tZld1M_HLgyAk7s2-166" value="" style="rounded=1;whiteSpace=wrap;html=1;strokeWidth=2;fillWeight=4;hachureGap=8;hachureAngle=45;fillColor=#f5f5f5;fontSize=15;fontColor=#333333;strokeColor=#666666;" vertex="1" parent="1">
          <mxGeometry x="40" y="600" width="1120" height="520" as="geometry" />
        </mxCell>
        <mxCell id="Vo_8tZld1M_HLgyAk7s2-165" value="" style="rounded=1;whiteSpace=wrap;html=1;strokeWidth=2;fillWeight=4;hachureGap=8;hachureAngle=45;fillColor=#f5f5f5;fontSize=15;fontColor=#333333;strokeColor=#666666;" vertex="1" parent="1">
          <mxGeometry x="40" y="1160" width="1120" height="600" as="geometry" />
        </mxCell>
        <mxCell id="Vo_8tZld1M_HLgyAk7s2-164" value="" style="rounded=1;whiteSpace=wrap;html=1;strokeWidth=2;fillWeight=4;hachureGap=8;hachureAngle=45;fillColor=#f5f5f5;fontSize=15;fontColor=#333333;strokeColor=#666666;" vertex="1" parent="1">
          <mxGeometry x="40" y="1800" width="1120" height="440" as="geometry" />
        </mxCell>
        <mxCell id="Vo_8tZld1M_HLgyAk7s2-161" value="" style="rounded=1;whiteSpace=wrap;html=1;strokeWidth=2;fillWeight=4;hachureGap=8;hachureAngle=45;fillColor=#f5f5f5;fontSize=15;fontColor=#333333;strokeColor=#666666;" vertex="1" parent="1">
          <mxGeometry x="40" y="-80" width="1120" height="240" as="geometry" />
        </mxCell>
        <mxCell id="Vo_8tZld1M_HLgyAk7s2-2" value="" style="rounded=1;whiteSpace=wrap;html=1;strokeWidth=2;fillWeight=4;hachureGap=8;hachureAngle=45;fillColor=#dae8fc;strokeColor=#6c8ebf;" vertex="1" parent="1">
          <mxGeometry x="280" y="40" width="80" height="80" as="geometry" />
        </mxCell>
        <mxCell id="Vo_8tZld1M_HLgyAk7s2-3" value="" style="rounded=1;whiteSpace=wrap;html=1;strokeWidth=2;fillWeight=4;hachureGap=8;hachureAngle=45;fillColor=#dae8fc;strokeColor=#6c8ebf;" vertex="1" parent="1">
          <mxGeometry x="360" y="40" width="80" height="80" as="geometry" />
        </mxCell>
        <mxCell id="Vo_8tZld1M_HLgyAk7s2-4" value="" style="rounded=1;whiteSpace=wrap;html=1;strokeWidth=2;fillWeight=4;hachureGap=8;hachureAngle=45;fillColor=#dae8fc;strokeColor=#6c8ebf;" vertex="1" parent="1">
          <mxGeometry x="440" y="40" width="80" height="80" as="geometry" />
        </mxCell>
        <mxCell id="Vo_8tZld1M_HLgyAk7s2-10" value="4" style="rounded=1;whiteSpace=wrap;html=1;strokeWidth=2;fillWeight=4;hachureGap=8;hachureAngle=45;fillColor=#d5e8d4;strokeColor=#82b366;fontSize=15;fontStyle=1" vertex="1" parent="1">
          <mxGeometry x="310" y="70" width="40" height="40" as="geometry" />
        </mxCell>
        <mxCell id="Vo_8tZld1M_HLgyAk7s2-11" value="5" style="rounded=1;whiteSpace=wrap;html=1;strokeWidth=2;fillWeight=4;hachureGap=8;hachureAngle=45;fillColor=#d5e8d4;strokeColor=#82b366;fontSize=15;fontStyle=1" vertex="1" parent="1">
          <mxGeometry x="390" y="70" width="40" height="40" as="geometry" />
        </mxCell>
        <mxCell id="Vo_8tZld1M_HLgyAk7s2-12" value="7" style="rounded=1;whiteSpace=wrap;html=1;strokeWidth=2;fillWeight=4;hachureGap=8;hachureAngle=45;fillColor=#d5e8d4;strokeColor=#82b366;fontSize=15;fontStyle=1" vertex="1" parent="1">
          <mxGeometry x="470" y="70" width="40" height="40" as="geometry" />
        </mxCell>
        <mxCell id="Vo_8tZld1M_HLgyAk7s2-13" value="" style="rounded=1;whiteSpace=wrap;html=1;strokeWidth=2;fillWeight=4;hachureGap=8;hachureAngle=45;fillColor=#dae8fc;strokeColor=#6c8ebf;" vertex="1" parent="1">
          <mxGeometry x="520" y="40" width="80" height="80" as="geometry" />
        </mxCell>
        <mxCell id="Vo_8tZld1M_HLgyAk7s2-14" value="3" style="rounded=1;whiteSpace=wrap;html=1;strokeWidth=2;fillWeight=4;hachureGap=8;hachureAngle=45;fillColor=#d5e8d4;strokeColor=#82b366;fontSize=15;fontStyle=1" vertex="1" parent="1">
          <mxGeometry x="550" y="70" width="40" height="40" as="geometry" />
        </mxCell>
        <mxCell id="Vo_8tZld1M_HLgyAk7s2-15" value="" style="rounded=1;whiteSpace=wrap;html=1;strokeWidth=2;fillWeight=4;hachureGap=8;hachureAngle=45;fillColor=#dae8fc;strokeColor=#6c8ebf;" vertex="1" parent="1">
          <mxGeometry x="600" y="40" width="80" height="80" as="geometry" />
        </mxCell>
        <mxCell id="Vo_8tZld1M_HLgyAk7s2-16" value="" style="rounded=1;whiteSpace=wrap;html=1;strokeWidth=2;fillWeight=4;hachureGap=8;hachureAngle=45;fillColor=#dae8fc;strokeColor=#6c8ebf;" vertex="1" parent="1">
          <mxGeometry x="680" y="40" width="80" height="80" as="geometry" />
        </mxCell>
        <mxCell id="Vo_8tZld1M_HLgyAk7s2-17" value="" style="rounded=1;whiteSpace=wrap;html=1;strokeWidth=2;fillWeight=4;hachureGap=8;hachureAngle=45;fillColor=#dae8fc;strokeColor=#6c8ebf;" vertex="1" parent="1">
          <mxGeometry x="760" y="40" width="80" height="80" as="geometry" />
        </mxCell>
        <mxCell id="Vo_8tZld1M_HLgyAk7s2-18" value="6" style="rounded=1;whiteSpace=wrap;html=1;strokeWidth=2;fillWeight=4;hachureGap=8;hachureAngle=45;fillColor=#d5e8d4;strokeColor=#82b366;fontSize=15;fontStyle=1" vertex="1" parent="1">
          <mxGeometry x="630" y="70" width="40" height="40" as="geometry" />
        </mxCell>
        <mxCell id="Vo_8tZld1M_HLgyAk7s2-19" value="8" style="rounded=1;whiteSpace=wrap;html=1;strokeWidth=2;fillWeight=4;hachureGap=8;hachureAngle=45;fillColor=#d5e8d4;strokeColor=#82b366;fontSize=15;fontStyle=1" vertex="1" parent="1">
          <mxGeometry x="710" y="70" width="40" height="40" as="geometry" />
        </mxCell>
        <mxCell id="Vo_8tZld1M_HLgyAk7s2-20" value="9" style="rounded=1;whiteSpace=wrap;html=1;strokeWidth=2;fillWeight=4;hachureGap=8;hachureAngle=45;fillColor=#d5e8d4;strokeColor=#82b366;fontSize=15;fontStyle=1" vertex="1" parent="1">
          <mxGeometry x="790" y="70" width="40" height="40" as="geometry" />
        </mxCell>
        <mxCell id="Vo_8tZld1M_HLgyAk7s2-21" value="" style="rounded=1;whiteSpace=wrap;html=1;strokeWidth=2;fillWeight=4;hachureGap=8;hachureAngle=45;fillColor=#dae8fc;strokeColor=#6c8ebf;" vertex="1" parent="1">
          <mxGeometry x="840" y="40" width="80" height="80" as="geometry" />
        </mxCell>
        <mxCell id="Vo_8tZld1M_HLgyAk7s2-22" value="2" style="rounded=1;whiteSpace=wrap;html=1;strokeWidth=2;fillWeight=4;hachureGap=8;hachureAngle=45;fillColor=#d5e8d4;strokeColor=#82b366;fontSize=15;fontStyle=1" vertex="1" parent="1">
          <mxGeometry x="870" y="70" width="40" height="40" as="geometry" />
        </mxCell>
        <mxCell id="Vo_8tZld1M_HLgyAk7s2-23" value="" style="rounded=1;whiteSpace=wrap;html=1;strokeWidth=2;fillWeight=4;hachureGap=8;hachureAngle=45;fillColor=#dae8fc;strokeColor=#6c8ebf;" vertex="1" parent="1">
          <mxGeometry x="280" y="440" width="80" height="80" as="geometry" />
        </mxCell>
        <mxCell id="Vo_8tZld1M_HLgyAk7s2-24" value="" style="rounded=1;whiteSpace=wrap;html=1;strokeWidth=2;fillWeight=4;hachureGap=8;hachureAngle=45;fillColor=#dae8fc;strokeColor=#6c8ebf;" vertex="1" parent="1">
          <mxGeometry x="360" y="440" width="80" height="80" as="geometry" />
        </mxCell>
        <mxCell id="Vo_8tZld1M_HLgyAk7s2-25" value="" style="rounded=1;whiteSpace=wrap;html=1;strokeWidth=2;fillWeight=4;hachureGap=8;hachureAngle=45;fillColor=#dae8fc;strokeColor=#6c8ebf;" vertex="1" parent="1">
          <mxGeometry x="440" y="440" width="80" height="80" as="geometry" />
        </mxCell>
        <mxCell id="Vo_8tZld1M_HLgyAk7s2-26" value="4" style="rounded=1;whiteSpace=wrap;html=1;strokeWidth=2;fillWeight=4;hachureGap=8;hachureAngle=45;fillColor=#d5e8d4;strokeColor=#82b366;fontSize=15;fontStyle=1" vertex="1" parent="1">
          <mxGeometry x="310" y="470" width="40" height="40" as="geometry" />
        </mxCell>
        <mxCell id="Vo_8tZld1M_HLgyAk7s2-27" value="5" style="rounded=1;whiteSpace=wrap;html=1;strokeWidth=2;fillWeight=4;hachureGap=8;hachureAngle=45;fillColor=#d5e8d4;strokeColor=#82b366;fontSize=15;fontStyle=1" vertex="1" parent="1">
          <mxGeometry x="390" y="470" width="40" height="40" as="geometry" />
        </mxCell>
        <mxCell id="Vo_8tZld1M_HLgyAk7s2-28" value="7" style="rounded=1;whiteSpace=wrap;html=1;strokeWidth=2;fillWeight=4;hachureGap=8;hachureAngle=45;fillColor=#d5e8d4;strokeColor=#82b366;fontSize=15;fontStyle=1" vertex="1" parent="1">
          <mxGeometry x="470" y="470" width="40" height="40" as="geometry" />
        </mxCell>
        <mxCell id="Vo_8tZld1M_HLgyAk7s2-29" value="" style="rounded=1;whiteSpace=wrap;html=1;strokeWidth=2;fillWeight=4;hachureGap=8;hachureAngle=45;fillColor=#dae8fc;strokeColor=#6c8ebf;" vertex="1" parent="1">
          <mxGeometry x="520" y="440" width="80" height="80" as="geometry" />
        </mxCell>
        <mxCell id="Vo_8tZld1M_HLgyAk7s2-30" value="3" style="rounded=1;whiteSpace=wrap;html=1;strokeWidth=2;fillWeight=4;hachureGap=8;hachureAngle=45;fillColor=#d5e8d4;strokeColor=#82b366;fontSize=15;fontStyle=1" vertex="1" parent="1">
          <mxGeometry x="550" y="470" width="40" height="40" as="geometry" />
        </mxCell>
        <mxCell id="Vo_8tZld1M_HLgyAk7s2-31" value="" style="rounded=1;whiteSpace=wrap;html=1;strokeWidth=2;fillWeight=4;hachureGap=8;hachureAngle=45;fillColor=#dae8fc;strokeColor=#6c8ebf;" vertex="1" parent="1">
          <mxGeometry x="600" y="440" width="80" height="80" as="geometry" />
        </mxCell>
        <mxCell id="Vo_8tZld1M_HLgyAk7s2-32" value="" style="rounded=1;whiteSpace=wrap;html=1;strokeWidth=2;fillWeight=4;hachureGap=8;hachureAngle=45;fillColor=#dae8fc;strokeColor=#6c8ebf;" vertex="1" parent="1">
          <mxGeometry x="680" y="440" width="80" height="80" as="geometry" />
        </mxCell>
        <mxCell id="Vo_8tZld1M_HLgyAk7s2-33" value="" style="rounded=1;whiteSpace=wrap;html=1;strokeWidth=2;fillWeight=4;hachureGap=8;hachureAngle=45;fillColor=#dae8fc;strokeColor=#6c8ebf;" vertex="1" parent="1">
          <mxGeometry x="760" y="440" width="80" height="80" as="geometry" />
        </mxCell>
        <mxCell id="Vo_8tZld1M_HLgyAk7s2-34" value="6" style="rounded=1;whiteSpace=wrap;html=1;strokeWidth=2;fillWeight=4;hachureGap=8;hachureAngle=45;fillColor=#d5e8d4;strokeColor=#82b366;fontSize=15;fontStyle=1" vertex="1" parent="1">
          <mxGeometry x="630" y="470" width="40" height="40" as="geometry" />
        </mxCell>
        <mxCell id="Vo_8tZld1M_HLgyAk7s2-35" value="8" style="rounded=1;whiteSpace=wrap;html=1;strokeWidth=2;fillWeight=4;hachureGap=8;hachureAngle=45;fillColor=#d5e8d4;strokeColor=#82b366;fontSize=15;fontStyle=1" vertex="1" parent="1">
          <mxGeometry x="710" y="470" width="40" height="40" as="geometry" />
        </mxCell>
        <mxCell id="Vo_8tZld1M_HLgyAk7s2-36" value="9" style="rounded=1;whiteSpace=wrap;html=1;strokeWidth=2;fillWeight=4;hachureGap=8;hachureAngle=45;fillColor=#d5e8d4;strokeColor=#82b366;fontSize=15;fontStyle=1" vertex="1" parent="1">
          <mxGeometry x="790" y="470" width="40" height="40" as="geometry" />
        </mxCell>
        <mxCell id="Vo_8tZld1M_HLgyAk7s2-37" value="" style="rounded=1;whiteSpace=wrap;html=1;strokeWidth=2;fillWeight=4;hachureGap=8;hachureAngle=45;fillColor=#dae8fc;strokeColor=#6c8ebf;" vertex="1" parent="1">
          <mxGeometry x="840" y="440" width="80" height="80" as="geometry" />
        </mxCell>
        <mxCell id="Vo_8tZld1M_HLgyAk7s2-38" value="2" style="rounded=1;whiteSpace=wrap;html=1;strokeWidth=2;fillWeight=4;hachureGap=8;hachureAngle=45;fillColor=#d5e8d4;strokeColor=#82b366;fontSize=15;fontStyle=1" vertex="1" parent="1">
          <mxGeometry x="870" y="470" width="40" height="40" as="geometry" />
        </mxCell>
        <mxCell id="Vo_8tZld1M_HLgyAk7s2-39" value="map[频次]val" style="rounded=1;whiteSpace=wrap;html=1;strokeWidth=2;fillWeight=4;hachureGap=8;hachureAngle=45;fillColor=#f8cecc;strokeColor=#b85450;fontSize=15;fontStyle=1" vertex="1" parent="1">
          <mxGeometry x="680" y="240" width="160" height="60" as="geometry" />
        </mxCell>
        <mxCell id="Vo_8tZld1M_HLgyAk7s2-40" value="" style="endArrow=classic;html=1;rounded=0;shadow=1;strokeWidth=2;sketch=1;curveFitting=1;jiggle=2;exitX=0.5;exitY=1;exitDx=0;exitDy=0;entryX=0.5;entryY=0;entryDx=0;entryDy=0;fillColor=#f8cecc;strokeColor=#b85450;" edge="1" parent="1" source="Vo_8tZld1M_HLgyAk7s2-39" target="Vo_8tZld1M_HLgyAk7s2-23">
          <mxGeometry width="50" height="50" relative="1" as="geometry">
            <mxPoint x="230" y="280" as="sourcePoint" />
            <mxPoint x="280" y="230" as="targetPoint" />
          </mxGeometry>
        </mxCell>
        <mxCell id="Vo_8tZld1M_HLgyAk7s2-41" value="" style="endArrow=classic;html=1;rounded=0;shadow=1;strokeWidth=2;sketch=1;curveFitting=1;jiggle=2;exitX=0.5;exitY=1;exitDx=0;exitDy=0;entryX=0.5;entryY=0;entryDx=0;entryDy=0;fillColor=#f8cecc;strokeColor=#b85450;" edge="1" parent="1" source="Vo_8tZld1M_HLgyAk7s2-39" target="Vo_8tZld1M_HLgyAk7s2-24">
          <mxGeometry width="50" height="50" relative="1" as="geometry">
            <mxPoint x="610" y="350" as="sourcePoint" />
            <mxPoint x="330" y="450" as="targetPoint" />
          </mxGeometry>
        </mxCell>
        <mxCell id="Vo_8tZld1M_HLgyAk7s2-42" value="" style="endArrow=classic;html=1;rounded=0;shadow=1;strokeWidth=2;sketch=1;curveFitting=1;jiggle=2;exitX=0.5;exitY=1;exitDx=0;exitDy=0;entryX=0.5;entryY=0;entryDx=0;entryDy=0;fillColor=#f8cecc;strokeColor=#b85450;" edge="1" parent="1" source="Vo_8tZld1M_HLgyAk7s2-39" target="Vo_8tZld1M_HLgyAk7s2-25">
          <mxGeometry width="50" height="50" relative="1" as="geometry">
            <mxPoint x="610" y="350" as="sourcePoint" />
            <mxPoint x="410" y="450" as="targetPoint" />
          </mxGeometry>
        </mxCell>
        <mxCell id="Vo_8tZld1M_HLgyAk7s2-43" value="" style="endArrow=classic;html=1;rounded=0;shadow=1;strokeWidth=2;sketch=1;curveFitting=1;jiggle=2;exitX=0.5;exitY=1;exitDx=0;exitDy=0;entryX=0.5;entryY=0;entryDx=0;entryDy=0;fillColor=#f8cecc;strokeColor=#b85450;" edge="1" parent="1" source="Vo_8tZld1M_HLgyAk7s2-39" target="Vo_8tZld1M_HLgyAk7s2-29">
          <mxGeometry width="50" height="50" relative="1" as="geometry">
            <mxPoint x="610" y="350" as="sourcePoint" />
            <mxPoint x="490" y="450" as="targetPoint" />
          </mxGeometry>
        </mxCell>
        <mxCell id="Vo_8tZld1M_HLgyAk7s2-44" value="" style="endArrow=classic;html=1;rounded=0;shadow=1;strokeWidth=2;sketch=1;curveFitting=1;jiggle=2;entryX=0.5;entryY=0;entryDx=0;entryDy=0;exitX=0.5;exitY=1;exitDx=0;exitDy=0;fillColor=#f8cecc;strokeColor=#b85450;" edge="1" parent="1" source="Vo_8tZld1M_HLgyAk7s2-39" target="Vo_8tZld1M_HLgyAk7s2-31">
          <mxGeometry width="50" height="50" relative="1" as="geometry">
            <mxPoint x="550" y="310" as="sourcePoint" />
            <mxPoint x="570" y="450" as="targetPoint" />
          </mxGeometry>
        </mxCell>
        <mxCell id="Vo_8tZld1M_HLgyAk7s2-45" value="" style="endArrow=classic;html=1;rounded=0;shadow=1;strokeWidth=2;sketch=1;curveFitting=1;jiggle=2;entryX=0.5;entryY=0;entryDx=0;entryDy=0;exitX=0.5;exitY=1;exitDx=0;exitDy=0;fillColor=#f8cecc;strokeColor=#b85450;" edge="1" parent="1" source="Vo_8tZld1M_HLgyAk7s2-39" target="Vo_8tZld1M_HLgyAk7s2-32">
          <mxGeometry width="50" height="50" relative="1" as="geometry">
            <mxPoint x="540" y="260" as="sourcePoint" />
            <mxPoint x="650" y="450" as="targetPoint" />
          </mxGeometry>
        </mxCell>
        <mxCell id="Vo_8tZld1M_HLgyAk7s2-46" value="" style="endArrow=classic;html=1;rounded=0;shadow=1;strokeWidth=2;sketch=1;curveFitting=1;jiggle=2;entryX=0.5;entryY=0;entryDx=0;entryDy=0;exitX=0.5;exitY=1;exitDx=0;exitDy=0;fillColor=#f8cecc;strokeColor=#b85450;" edge="1" parent="1" source="Vo_8tZld1M_HLgyAk7s2-39" target="Vo_8tZld1M_HLgyAk7s2-33">
          <mxGeometry width="50" height="50" relative="1" as="geometry">
            <mxPoint x="550" y="310" as="sourcePoint" />
            <mxPoint x="730" y="450" as="targetPoint" />
          </mxGeometry>
        </mxCell>
        <mxCell id="Vo_8tZld1M_HLgyAk7s2-47" value="" style="endArrow=classic;html=1;rounded=0;shadow=1;strokeWidth=2;sketch=1;curveFitting=1;jiggle=2;entryX=0.5;entryY=0;entryDx=0;entryDy=0;exitX=0.5;exitY=1;exitDx=0;exitDy=0;fillColor=#f8cecc;strokeColor=#b85450;" edge="1" parent="1" source="Vo_8tZld1M_HLgyAk7s2-39" target="Vo_8tZld1M_HLgyAk7s2-37">
          <mxGeometry width="50" height="50" relative="1" as="geometry">
            <mxPoint x="590" y="280" as="sourcePoint" />
            <mxPoint x="850" y="420" as="targetPoint" />
          </mxGeometry>
        </mxCell>
        <mxCell id="Vo_8tZld1M_HLgyAk7s2-48" value="" style="rounded=1;whiteSpace=wrap;html=1;strokeWidth=2;fillWeight=4;hachureGap=8;hachureAngle=45;fillColor=#dae8fc;strokeColor=#6c8ebf;" vertex="1" parent="1">
          <mxGeometry x="280" y="840" width="80" height="80" as="geometry" />
        </mxCell>
        <mxCell id="Vo_8tZld1M_HLgyAk7s2-49" value="" style="rounded=1;whiteSpace=wrap;html=1;strokeWidth=2;fillWeight=4;hachureGap=8;hachureAngle=45;fillColor=#dae8fc;strokeColor=#6c8ebf;fontStyle=1;fontSize=15;" vertex="1" parent="1">
          <mxGeometry x="280" y="920" width="80" height="80" as="geometry" />
        </mxCell>
        <mxCell id="Vo_8tZld1M_HLgyAk7s2-50" value="" style="rounded=1;whiteSpace=wrap;html=1;strokeWidth=2;fillWeight=4;hachureGap=8;hachureAngle=45;fillColor=#dae8fc;strokeColor=#6c8ebf;" vertex="1" parent="1">
          <mxGeometry x="480" y="840" width="80" height="80" as="geometry" />
        </mxCell>
        <mxCell id="Vo_8tZld1M_HLgyAk7s2-51" value="4" style="rounded=1;whiteSpace=wrap;html=1;strokeWidth=2;fillWeight=4;hachureGap=8;hachureAngle=45;fillColor=#d5e8d4;strokeColor=#82b366;fontStyle=1;fontSize=15;" vertex="1" parent="1">
          <mxGeometry x="310" y="870" width="40" height="40" as="geometry" />
        </mxCell>
        <mxCell id="Vo_8tZld1M_HLgyAk7s2-52" value="4" style="rounded=1;whiteSpace=wrap;html=1;strokeWidth=2;fillWeight=4;hachureGap=8;hachureAngle=45;fillColor=#d5e8d4;strokeColor=#82b366;fontStyle=1;fontSize=15;" vertex="1" parent="1">
          <mxGeometry x="310" y="950" width="40" height="40" as="geometry" />
        </mxCell>
        <mxCell id="Vo_8tZld1M_HLgyAk7s2-53" value="7" style="rounded=1;whiteSpace=wrap;html=1;strokeWidth=2;fillWeight=4;hachureGap=8;hachureAngle=45;fillColor=#d5e8d4;strokeColor=#82b366;fontStyle=1;fontSize=15;" vertex="1" parent="1">
          <mxGeometry x="510" y="870" width="40" height="40" as="geometry" />
        </mxCell>
        <mxCell id="Vo_8tZld1M_HLgyAk7s2-54" value="" style="rounded=1;whiteSpace=wrap;html=1;strokeWidth=2;fillWeight=4;hachureGap=8;hachureAngle=45;fillColor=#dae8fc;strokeColor=#6c8ebf;fontStyle=1;fontSize=15;" vertex="1" parent="1">
          <mxGeometry x="480" y="920" width="80" height="80" as="geometry" />
        </mxCell>
        <mxCell id="Vo_8tZld1M_HLgyAk7s2-55" value="7" style="rounded=1;whiteSpace=wrap;html=1;strokeWidth=2;fillWeight=4;hachureGap=8;hachureAngle=45;fillColor=#d5e8d4;strokeColor=#82b366;fontStyle=1;fontSize=15;" vertex="1" parent="1">
          <mxGeometry x="510" y="950" width="40" height="40" as="geometry" />
        </mxCell>
        <mxCell id="Vo_8tZld1M_HLgyAk7s2-56" value="" style="rounded=1;whiteSpace=wrap;html=1;strokeWidth=2;fillWeight=4;hachureGap=8;hachureAngle=45;fillColor=#dae8fc;strokeColor=#6c8ebf;" vertex="1" parent="1">
          <mxGeometry x="640" y="840" width="80" height="80" as="geometry" />
        </mxCell>
        <mxCell id="Vo_8tZld1M_HLgyAk7s2-57" value="" style="rounded=1;whiteSpace=wrap;html=1;strokeWidth=2;fillWeight=4;hachureGap=8;hachureAngle=45;fillColor=#dae8fc;strokeColor=#6c8ebf;fontStyle=1;fontSize=15;" vertex="1" parent="1">
          <mxGeometry x="640" y="920" width="80" height="80" as="geometry" />
        </mxCell>
        <mxCell id="Vo_8tZld1M_HLgyAk7s2-58" value="" style="rounded=1;whiteSpace=wrap;html=1;strokeWidth=2;fillWeight=4;hachureGap=8;hachureAngle=45;fillColor=#dae8fc;strokeColor=#6c8ebf;fontStyle=1;fontSize=15;" vertex="1" parent="1">
          <mxGeometry x="640" y="1000" width="80" height="80" as="geometry" />
        </mxCell>
        <mxCell id="Vo_8tZld1M_HLgyAk7s2-59" value="6" style="rounded=1;whiteSpace=wrap;html=1;strokeWidth=2;fillWeight=4;hachureGap=8;hachureAngle=45;fillColor=#d5e8d4;strokeColor=#82b366;fontStyle=1;fontSize=15;" vertex="1" parent="1">
          <mxGeometry x="670" y="870" width="40" height="40" as="geometry" />
        </mxCell>
        <mxCell id="Vo_8tZld1M_HLgyAk7s2-60" value="6" style="rounded=1;whiteSpace=wrap;html=1;strokeWidth=2;fillWeight=4;hachureGap=8;hachureAngle=45;fillColor=#d5e8d4;strokeColor=#82b366;fontStyle=1;fontSize=15;" vertex="1" parent="1">
          <mxGeometry x="670" y="950" width="40" height="40" as="geometry" />
        </mxCell>
        <mxCell id="Vo_8tZld1M_HLgyAk7s2-61" value="6" style="rounded=1;whiteSpace=wrap;html=1;strokeWidth=2;fillWeight=4;hachureGap=8;hachureAngle=45;fillColor=#d5e8d4;strokeColor=#82b366;fontStyle=1;fontSize=15;" vertex="1" parent="1">
          <mxGeometry x="670" y="1030" width="40" height="40" as="geometry" />
        </mxCell>
        <mxCell id="Vo_8tZld1M_HLgyAk7s2-62" value="" style="rounded=1;whiteSpace=wrap;html=1;strokeWidth=2;fillWeight=4;hachureGap=8;hachureAngle=45;fillColor=#dae8fc;strokeColor=#6c8ebf;" vertex="1" parent="1">
          <mxGeometry x="840" y="840" width="80" height="80" as="geometry" />
        </mxCell>
        <mxCell id="Vo_8tZld1M_HLgyAk7s2-63" value="9" style="rounded=1;whiteSpace=wrap;html=1;strokeWidth=2;fillWeight=4;hachureGap=8;hachureAngle=45;fillColor=#d5e8d4;strokeColor=#82b366;fontStyle=1;fontSize=15;" vertex="1" parent="1">
          <mxGeometry x="870" y="870" width="40" height="40" as="geometry" />
        </mxCell>
        <mxCell id="Vo_8tZld1M_HLgyAk7s2-64" value="map[频次]val" style="rounded=1;whiteSpace=wrap;html=1;strokeWidth=2;fillWeight=4;hachureGap=8;hachureAngle=45;fillColor=#f8cecc;strokeColor=#b85450;fontSize=15;fontStyle=1" vertex="1" parent="1">
          <mxGeometry x="680" y="640" width="160" height="60" as="geometry" />
        </mxCell>
        <mxCell id="Vo_8tZld1M_HLgyAk7s2-65" value="" style="endArrow=classic;html=1;rounded=0;shadow=1;strokeWidth=2;sketch=1;curveFitting=1;jiggle=2;exitX=0.5;exitY=1;exitDx=0;exitDy=0;entryX=0.5;entryY=0;entryDx=0;entryDy=0;fillColor=#f8cecc;strokeColor=#b85450;" edge="1" parent="1" source="Vo_8tZld1M_HLgyAk7s2-64" target="Vo_8tZld1M_HLgyAk7s2-48">
          <mxGeometry width="50" height="50" relative="1" as="geometry">
            <mxPoint x="230" y="680" as="sourcePoint" />
            <mxPoint x="280" y="630" as="targetPoint" />
          </mxGeometry>
        </mxCell>
        <mxCell id="Vo_8tZld1M_HLgyAk7s2-67" value="" style="endArrow=classic;html=1;rounded=0;shadow=1;strokeWidth=2;sketch=1;curveFitting=1;jiggle=2;exitX=0.5;exitY=1;exitDx=0;exitDy=0;entryX=0.5;entryY=0;entryDx=0;entryDy=0;fillColor=#f8cecc;strokeColor=#b85450;" edge="1" parent="1" source="Vo_8tZld1M_HLgyAk7s2-64" target="Vo_8tZld1M_HLgyAk7s2-50">
          <mxGeometry width="50" height="50" relative="1" as="geometry">
            <mxPoint x="610" y="750" as="sourcePoint" />
            <mxPoint x="410" y="850" as="targetPoint" />
          </mxGeometry>
        </mxCell>
        <mxCell id="Vo_8tZld1M_HLgyAk7s2-69" value="" style="endArrow=classic;html=1;rounded=0;shadow=1;strokeWidth=2;sketch=1;curveFitting=1;jiggle=2;entryX=0.5;entryY=0;entryDx=0;entryDy=0;exitX=0.5;exitY=1;exitDx=0;exitDy=0;fillColor=#f8cecc;strokeColor=#b85450;" edge="1" parent="1" source="Vo_8tZld1M_HLgyAk7s2-64" target="Vo_8tZld1M_HLgyAk7s2-56">
          <mxGeometry width="50" height="50" relative="1" as="geometry">
            <mxPoint x="550" y="710" as="sourcePoint" />
            <mxPoint x="570" y="850" as="targetPoint" />
          </mxGeometry>
        </mxCell>
        <mxCell id="Vo_8tZld1M_HLgyAk7s2-72" value="" style="endArrow=classic;html=1;rounded=0;shadow=1;strokeWidth=2;sketch=1;curveFitting=1;jiggle=2;entryX=0.5;entryY=0;entryDx=0;entryDy=0;exitX=0.5;exitY=1;exitDx=0;exitDy=0;fillColor=#f8cecc;strokeColor=#b85450;" edge="1" parent="1" source="Vo_8tZld1M_HLgyAk7s2-64" target="Vo_8tZld1M_HLgyAk7s2-62">
          <mxGeometry width="50" height="50" relative="1" as="geometry">
            <mxPoint x="590" y="680" as="sourcePoint" />
            <mxPoint x="850" y="820" as="targetPoint" />
          </mxGeometry>
        </mxCell>
        <mxCell id="Vo_8tZld1M_HLgyAk7s2-73" value="" style="rounded=1;whiteSpace=wrap;html=1;strokeWidth=2;fillWeight=4;hachureGap=8;hachureAngle=45;fillColor=#dae8fc;strokeColor=#6c8ebf;fontSize=15;fontStyle=1" vertex="1" parent="1">
          <mxGeometry x="280" y="1400" width="80" height="80" as="geometry" />
        </mxCell>
        <mxCell id="Vo_8tZld1M_HLgyAk7s2-74" value="" style="rounded=1;whiteSpace=wrap;html=1;strokeWidth=2;fillWeight=4;hachureGap=8;hachureAngle=45;fillColor=#dae8fc;strokeColor=#6c8ebf;fontSize=15;fontStyle=1" vertex="1" parent="1">
          <mxGeometry x="280" y="1520" width="80" height="80" as="geometry" />
        </mxCell>
        <mxCell id="Vo_8tZld1M_HLgyAk7s2-75" value="" style="rounded=1;whiteSpace=wrap;html=1;strokeWidth=2;fillWeight=4;hachureGap=8;hachureAngle=45;fillColor=#dae8fc;strokeColor=#6c8ebf;fontSize=15;fontStyle=1" vertex="1" parent="1">
          <mxGeometry x="480" y="1400" width="80" height="80" as="geometry" />
        </mxCell>
        <mxCell id="Vo_8tZld1M_HLgyAk7s2-76" value="4" style="rounded=1;whiteSpace=wrap;html=1;strokeWidth=2;fillWeight=4;hachureGap=8;hachureAngle=45;fillColor=#d5e8d4;strokeColor=#82b366;fontSize=15;fontStyle=1" vertex="1" parent="1">
          <mxGeometry x="310" y="1430" width="40" height="40" as="geometry" />
        </mxCell>
        <mxCell id="Vo_8tZld1M_HLgyAk7s2-77" value="4" style="rounded=1;whiteSpace=wrap;html=1;strokeWidth=2;fillWeight=4;hachureGap=8;hachureAngle=45;fillColor=#d5e8d4;strokeColor=#82b366;fontSize=15;fontStyle=1" vertex="1" parent="1">
          <mxGeometry x="310" y="1550" width="40" height="40" as="geometry" />
        </mxCell>
        <mxCell id="Vo_8tZld1M_HLgyAk7s2-78" value="7" style="rounded=1;whiteSpace=wrap;html=1;strokeWidth=2;fillWeight=4;hachureGap=8;hachureAngle=45;fillColor=#d5e8d4;strokeColor=#82b366;fontSize=15;fontStyle=1" vertex="1" parent="1">
          <mxGeometry x="510" y="1430" width="40" height="40" as="geometry" />
        </mxCell>
        <mxCell id="Vo_8tZld1M_HLgyAk7s2-79" value="" style="rounded=1;whiteSpace=wrap;html=1;strokeWidth=2;fillWeight=4;hachureGap=8;hachureAngle=45;fillColor=#dae8fc;strokeColor=#6c8ebf;fontSize=15;fontStyle=1" vertex="1" parent="1">
          <mxGeometry x="480" y="1520" width="80" height="80" as="geometry" />
        </mxCell>
        <mxCell id="Vo_8tZld1M_HLgyAk7s2-80" value="7" style="rounded=1;whiteSpace=wrap;html=1;strokeWidth=2;fillWeight=4;hachureGap=8;hachureAngle=45;fillColor=#d5e8d4;strokeColor=#82b366;fontSize=15;fontStyle=1" vertex="1" parent="1">
          <mxGeometry x="510" y="1550" width="40" height="40" as="geometry" />
        </mxCell>
        <mxCell id="Vo_8tZld1M_HLgyAk7s2-81" value="" style="rounded=1;whiteSpace=wrap;html=1;strokeWidth=2;fillWeight=4;hachureGap=8;hachureAngle=45;fillColor=#dae8fc;strokeColor=#6c8ebf;fontSize=15;fontStyle=1" vertex="1" parent="1">
          <mxGeometry x="640" y="1400" width="80" height="80" as="geometry" />
        </mxCell>
        <mxCell id="Vo_8tZld1M_HLgyAk7s2-82" value="" style="rounded=1;whiteSpace=wrap;html=1;strokeWidth=2;fillWeight=4;hachureGap=8;hachureAngle=45;fillColor=#dae8fc;strokeColor=#6c8ebf;fontSize=15;fontStyle=1" vertex="1" parent="1">
          <mxGeometry x="640" y="1520" width="80" height="80" as="geometry" />
        </mxCell>
        <mxCell id="Vo_8tZld1M_HLgyAk7s2-83" value="" style="rounded=1;whiteSpace=wrap;html=1;strokeWidth=2;fillWeight=4;hachureGap=8;hachureAngle=45;fillColor=#dae8fc;strokeColor=#6c8ebf;fontSize=15;fontStyle=1" vertex="1" parent="1">
          <mxGeometry x="640" y="1640" width="80" height="80" as="geometry" />
        </mxCell>
        <mxCell id="Vo_8tZld1M_HLgyAk7s2-84" value="6" style="rounded=1;whiteSpace=wrap;html=1;strokeWidth=2;fillWeight=4;hachureGap=8;hachureAngle=45;fillColor=#d5e8d4;strokeColor=#82b366;fontSize=15;fontStyle=1" vertex="1" parent="1">
          <mxGeometry x="670" y="1430" width="40" height="40" as="geometry" />
        </mxCell>
        <mxCell id="Vo_8tZld1M_HLgyAk7s2-85" value="6" style="rounded=1;whiteSpace=wrap;html=1;strokeWidth=2;fillWeight=4;hachureGap=8;hachureAngle=45;fillColor=#d5e8d4;strokeColor=#82b366;fontSize=15;fontStyle=1" vertex="1" parent="1">
          <mxGeometry x="670" y="1550" width="40" height="40" as="geometry" />
        </mxCell>
        <mxCell id="Vo_8tZld1M_HLgyAk7s2-86" value="6" style="rounded=1;whiteSpace=wrap;html=1;strokeWidth=2;fillWeight=4;hachureGap=8;hachureAngle=45;fillColor=#d5e8d4;strokeColor=#82b366;fontSize=15;fontStyle=1" vertex="1" parent="1">
          <mxGeometry x="670" y="1670" width="40" height="40" as="geometry" />
        </mxCell>
        <mxCell id="Vo_8tZld1M_HLgyAk7s2-87" value="" style="rounded=1;whiteSpace=wrap;html=1;strokeWidth=2;fillWeight=4;hachureGap=8;hachureAngle=45;fillColor=#dae8fc;strokeColor=#6c8ebf;fontSize=15;fontStyle=1" vertex="1" parent="1">
          <mxGeometry x="840" y="1400" width="80" height="80" as="geometry" />
        </mxCell>
        <mxCell id="Vo_8tZld1M_HLgyAk7s2-88" value="9" style="rounded=1;whiteSpace=wrap;html=1;strokeWidth=2;fillWeight=4;hachureGap=8;hachureAngle=45;fillColor=#d5e8d4;strokeColor=#82b366;fontSize=15;fontStyle=1" vertex="1" parent="1">
          <mxGeometry x="870" y="1430" width="40" height="40" as="geometry" />
        </mxCell>
        <mxCell id="Vo_8tZld1M_HLgyAk7s2-89" value="map[频次]val" style="rounded=1;whiteSpace=wrap;html=1;strokeWidth=2;fillWeight=4;hachureGap=8;hachureAngle=45;fillColor=#f8cecc;strokeColor=#b85450;fontSize=15;fontStyle=1" vertex="1" parent="1">
          <mxGeometry x="680" y="1200" width="160" height="60" as="geometry" />
        </mxCell>
        <mxCell id="Vo_8tZld1M_HLgyAk7s2-90" value="" style="endArrow=classic;html=1;rounded=0;shadow=1;strokeWidth=2;sketch=1;curveFitting=1;jiggle=2;exitX=0.5;exitY=1;exitDx=0;exitDy=0;entryX=0.5;entryY=0;entryDx=0;entryDy=0;fillColor=#f8cecc;strokeColor=#b85450;" edge="1" parent="1" source="Vo_8tZld1M_HLgyAk7s2-89" target="Vo_8tZld1M_HLgyAk7s2-73">
          <mxGeometry width="50" height="50" relative="1" as="geometry">
            <mxPoint x="230" y="1240" as="sourcePoint" />
            <mxPoint x="280" y="1190" as="targetPoint" />
          </mxGeometry>
        </mxCell>
        <mxCell id="Vo_8tZld1M_HLgyAk7s2-91" value="" style="endArrow=classic;html=1;rounded=0;shadow=1;strokeWidth=2;sketch=1;curveFitting=1;jiggle=2;exitX=0.5;exitY=1;exitDx=0;exitDy=0;entryX=0.5;entryY=0;entryDx=0;entryDy=0;fillColor=#f8cecc;strokeColor=#b85450;" edge="1" parent="1" source="Vo_8tZld1M_HLgyAk7s2-89" target="Vo_8tZld1M_HLgyAk7s2-75">
          <mxGeometry width="50" height="50" relative="1" as="geometry">
            <mxPoint x="610" y="1310" as="sourcePoint" />
            <mxPoint x="410" y="1410" as="targetPoint" />
          </mxGeometry>
        </mxCell>
        <mxCell id="Vo_8tZld1M_HLgyAk7s2-92" value="" style="endArrow=classic;html=1;rounded=0;shadow=1;strokeWidth=2;sketch=1;curveFitting=1;jiggle=2;entryX=0.5;entryY=0;entryDx=0;entryDy=0;exitX=0.5;exitY=1;exitDx=0;exitDy=0;fillColor=#f8cecc;strokeColor=#b85450;" edge="1" parent="1" source="Vo_8tZld1M_HLgyAk7s2-89" target="Vo_8tZld1M_HLgyAk7s2-81">
          <mxGeometry width="50" height="50" relative="1" as="geometry">
            <mxPoint x="550" y="1270" as="sourcePoint" />
            <mxPoint x="570" y="1410" as="targetPoint" />
          </mxGeometry>
        </mxCell>
        <mxCell id="Vo_8tZld1M_HLgyAk7s2-93" value="" style="endArrow=classic;html=1;rounded=0;shadow=1;strokeWidth=2;sketch=1;curveFitting=1;jiggle=2;entryX=0.5;entryY=0;entryDx=0;entryDy=0;exitX=0.5;exitY=1;exitDx=0;exitDy=0;fillColor=#f8cecc;strokeColor=#b85450;" edge="1" parent="1" source="Vo_8tZld1M_HLgyAk7s2-89" target="Vo_8tZld1M_HLgyAk7s2-87">
          <mxGeometry width="50" height="50" relative="1" as="geometry">
            <mxPoint x="590" y="1240" as="sourcePoint" />
            <mxPoint x="850" y="1380" as="targetPoint" />
          </mxGeometry>
        </mxCell>
        <mxCell id="Vo_8tZld1M_HLgyAk7s2-94" value="" style="endArrow=classic;html=1;rounded=0;shadow=1;sketch=1;strokeWidth=2;fontSize=15;exitX=0.5;exitY=1;exitDx=0;exitDy=0;entryX=0.5;entryY=0;entryDx=0;entryDy=0;fontStyle=1" edge="1" parent="1" source="Vo_8tZld1M_HLgyAk7s2-73" target="Vo_8tZld1M_HLgyAk7s2-74">
          <mxGeometry width="50" height="50" relative="1" as="geometry">
            <mxPoint x="120" y="1460" as="sourcePoint" />
            <mxPoint x="320" y="1510" as="targetPoint" />
          </mxGeometry>
        </mxCell>
        <mxCell id="Vo_8tZld1M_HLgyAk7s2-96" value="" style="endArrow=classic;html=1;rounded=0;shadow=1;sketch=1;strokeWidth=2;fontSize=15;exitX=0.5;exitY=1;exitDx=0;exitDy=0;entryX=0.5;entryY=0;entryDx=0;entryDy=0;fontStyle=1" edge="1" parent="1" source="Vo_8tZld1M_HLgyAk7s2-75" target="Vo_8tZld1M_HLgyAk7s2-79">
          <mxGeometry width="50" height="50" relative="1" as="geometry">
            <mxPoint x="330" y="1490" as="sourcePoint" />
            <mxPoint x="330" y="1530" as="targetPoint" />
          </mxGeometry>
        </mxCell>
        <mxCell id="Vo_8tZld1M_HLgyAk7s2-97" value="" style="endArrow=classic;html=1;rounded=0;shadow=1;sketch=1;strokeWidth=2;fontSize=15;exitX=0.5;exitY=1;exitDx=0;exitDy=0;fontStyle=1" edge="1" parent="1" source="Vo_8tZld1M_HLgyAk7s2-81" target="Vo_8tZld1M_HLgyAk7s2-82">
          <mxGeometry width="50" height="50" relative="1" as="geometry">
            <mxPoint x="530" y="1490" as="sourcePoint" />
            <mxPoint x="530" y="1530" as="targetPoint" />
          </mxGeometry>
        </mxCell>
        <mxCell id="Vo_8tZld1M_HLgyAk7s2-98" value="" style="endArrow=classic;html=1;rounded=0;shadow=1;sketch=1;strokeWidth=2;fontSize=15;exitX=0.5;exitY=1;exitDx=0;exitDy=0;entryX=0.5;entryY=0;entryDx=0;entryDy=0;fontStyle=1" edge="1" parent="1" source="Vo_8tZld1M_HLgyAk7s2-82" target="Vo_8tZld1M_HLgyAk7s2-83">
          <mxGeometry width="50" height="50" relative="1" as="geometry">
            <mxPoint x="690" y="1490" as="sourcePoint" />
            <mxPoint x="690" y="1530" as="targetPoint" />
          </mxGeometry>
        </mxCell>
        <mxCell id="Vo_8tZld1M_HLgyAk7s2-124" value="" style="rounded=1;whiteSpace=wrap;html=1;strokeWidth=2;fillWeight=4;hachureGap=8;hachureAngle=45;fillColor=#dae8fc;strokeColor=#6c8ebf;" vertex="1" parent="1">
          <mxGeometry x="80" y="2080" width="80" height="80" as="geometry" />
        </mxCell>
        <mxCell id="Vo_8tZld1M_HLgyAk7s2-125" value="" style="rounded=1;whiteSpace=wrap;html=1;strokeWidth=2;fillWeight=4;hachureGap=8;hachureAngle=45;fillColor=#dae8fc;strokeColor=#6c8ebf;" vertex="1" parent="1">
          <mxGeometry x="200" y="2080" width="80" height="80" as="geometry" />
        </mxCell>
        <mxCell id="Vo_8tZld1M_HLgyAk7s2-126" value="" style="rounded=1;whiteSpace=wrap;html=1;strokeWidth=2;fillWeight=4;hachureGap=8;hachureAngle=45;fillColor=#dae8fc;strokeColor=#6c8ebf;" vertex="1" parent="1">
          <mxGeometry x="360" y="2080" width="80" height="80" as="geometry" />
        </mxCell>
        <mxCell id="Vo_8tZld1M_HLgyAk7s2-127" value="4" style="rounded=1;whiteSpace=wrap;html=1;strokeWidth=2;fillWeight=4;hachureGap=8;hachureAngle=45;fillColor=#d5e8d4;strokeColor=#82b366;fontSize=15;fontStyle=1" vertex="1" parent="1">
          <mxGeometry x="110" y="2110" width="40" height="40" as="geometry" />
        </mxCell>
        <mxCell id="Vo_8tZld1M_HLgyAk7s2-128" value="4" style="rounded=1;whiteSpace=wrap;html=1;strokeWidth=2;fillWeight=4;hachureGap=8;hachureAngle=45;fillColor=#d5e8d4;strokeColor=#82b366;fontSize=15;fontStyle=1" vertex="1" parent="1">
          <mxGeometry x="230" y="2110" width="40" height="40" as="geometry" />
        </mxCell>
        <mxCell id="Vo_8tZld1M_HLgyAk7s2-129" value="7" style="rounded=1;whiteSpace=wrap;html=1;strokeWidth=2;fillWeight=4;hachureGap=8;hachureAngle=45;fillColor=#d5e8d4;strokeColor=#82b366;fontSize=15;fontStyle=1" vertex="1" parent="1">
          <mxGeometry x="390" y="2110" width="40" height="40" as="geometry" />
        </mxCell>
        <mxCell id="Vo_8tZld1M_HLgyAk7s2-130" value="" style="rounded=1;whiteSpace=wrap;html=1;strokeWidth=2;fillWeight=4;hachureGap=8;hachureAngle=45;fillColor=#dae8fc;strokeColor=#6c8ebf;" vertex="1" parent="1">
          <mxGeometry x="480" y="2080" width="80" height="80" as="geometry" />
        </mxCell>
        <mxCell id="Vo_8tZld1M_HLgyAk7s2-131" value="7" style="rounded=1;whiteSpace=wrap;html=1;strokeWidth=2;fillWeight=4;hachureGap=8;hachureAngle=45;fillColor=#d5e8d4;strokeColor=#82b366;fontSize=15;fontStyle=1" vertex="1" parent="1">
          <mxGeometry x="510" y="2110" width="40" height="40" as="geometry" />
        </mxCell>
        <mxCell id="Vo_8tZld1M_HLgyAk7s2-132" value="" style="rounded=1;whiteSpace=wrap;html=1;strokeWidth=2;fillWeight=4;hachureGap=8;hachureAngle=45;fillColor=#dae8fc;strokeColor=#6c8ebf;" vertex="1" parent="1">
          <mxGeometry x="640" y="2080" width="80" height="80" as="geometry" />
        </mxCell>
        <mxCell id="Vo_8tZld1M_HLgyAk7s2-133" value="" style="rounded=1;whiteSpace=wrap;html=1;strokeWidth=2;fillWeight=4;hachureGap=8;hachureAngle=45;fillColor=#dae8fc;strokeColor=#6c8ebf;" vertex="1" parent="1">
          <mxGeometry x="760" y="2080" width="80" height="80" as="geometry" />
        </mxCell>
        <mxCell id="Vo_8tZld1M_HLgyAk7s2-134" value="" style="rounded=1;whiteSpace=wrap;html=1;strokeWidth=2;fillWeight=4;hachureGap=8;hachureAngle=45;fillColor=#dae8fc;strokeColor=#6c8ebf;" vertex="1" parent="1">
          <mxGeometry x="880" y="2080" width="80" height="80" as="geometry" />
        </mxCell>
        <mxCell id="Vo_8tZld1M_HLgyAk7s2-135" value="6" style="rounded=1;whiteSpace=wrap;html=1;strokeWidth=2;fillWeight=4;hachureGap=8;hachureAngle=45;fillColor=#d5e8d4;strokeColor=#82b366;fontSize=15;fontStyle=1" vertex="1" parent="1">
          <mxGeometry x="670" y="2110" width="40" height="40" as="geometry" />
        </mxCell>
        <mxCell id="Vo_8tZld1M_HLgyAk7s2-136" value="6" style="rounded=1;whiteSpace=wrap;html=1;strokeWidth=2;fillWeight=4;hachureGap=8;hachureAngle=45;fillColor=#d5e8d4;strokeColor=#82b366;fontSize=15;fontStyle=1" vertex="1" parent="1">
          <mxGeometry x="790" y="2110" width="40" height="40" as="geometry" />
        </mxCell>
        <mxCell id="Vo_8tZld1M_HLgyAk7s2-137" value="6" style="rounded=1;whiteSpace=wrap;html=1;strokeWidth=2;fillWeight=4;hachureGap=8;hachureAngle=45;fillColor=#d5e8d4;strokeColor=#82b366;fontSize=15;fontStyle=1" vertex="1" parent="1">
          <mxGeometry x="910" y="2110" width="40" height="40" as="geometry" />
        </mxCell>
        <mxCell id="Vo_8tZld1M_HLgyAk7s2-138" value="" style="rounded=1;whiteSpace=wrap;html=1;strokeWidth=2;fillWeight=4;hachureGap=8;hachureAngle=45;fillColor=#dae8fc;strokeColor=#6c8ebf;" vertex="1" parent="1">
          <mxGeometry x="1040" y="2080" width="80" height="80" as="geometry" />
        </mxCell>
        <mxCell id="Vo_8tZld1M_HLgyAk7s2-139" value="9" style="rounded=1;whiteSpace=wrap;html=1;strokeWidth=2;fillWeight=4;hachureGap=8;hachureAngle=45;fillColor=#d5e8d4;strokeColor=#82b366;fontSize=15;fontStyle=1" vertex="1" parent="1">
          <mxGeometry x="1070" y="2110" width="40" height="40" as="geometry" />
        </mxCell>
        <mxCell id="Vo_8tZld1M_HLgyAk7s2-140" value="map[key]val" style="rounded=1;whiteSpace=wrap;html=1;strokeWidth=2;fillWeight=4;hachureGap=8;hachureAngle=45;fillColor=#b0e3e6;strokeColor=#0e8088;fontSize=15;fontStyle=1" vertex="1" parent="1">
          <mxGeometry x="360" y="1880" width="160" height="60" as="geometry" />
        </mxCell>
        <mxCell id="Vo_8tZld1M_HLgyAk7s2-141" value="" style="endArrow=classic;html=1;rounded=0;shadow=1;strokeWidth=2;sketch=1;curveFitting=1;jiggle=2;exitX=0.5;exitY=1;exitDx=0;exitDy=0;entryX=0.5;entryY=0;entryDx=0;entryDy=0;fillColor=#b0e3e6;strokeColor=#0e8088;" edge="1" parent="1" source="Vo_8tZld1M_HLgyAk7s2-140" target="Vo_8tZld1M_HLgyAk7s2-124">
          <mxGeometry width="50" height="50" relative="1" as="geometry">
            <mxPoint x="150" y="1920" as="sourcePoint" />
            <mxPoint x="200" y="1870" as="targetPoint" />
          </mxGeometry>
        </mxCell>
        <mxCell id="Vo_8tZld1M_HLgyAk7s2-142" value="" style="endArrow=classic;html=1;rounded=0;shadow=1;strokeWidth=2;sketch=1;curveFitting=1;jiggle=2;exitX=0.5;exitY=1;exitDx=0;exitDy=0;entryX=0.5;entryY=0;entryDx=0;entryDy=0;fillColor=#b0e3e6;strokeColor=#0e8088;" edge="1" parent="1" source="Vo_8tZld1M_HLgyAk7s2-140" target="Vo_8tZld1M_HLgyAk7s2-125">
          <mxGeometry width="50" height="50" relative="1" as="geometry">
            <mxPoint x="530" y="1990" as="sourcePoint" />
            <mxPoint x="250" y="2090" as="targetPoint" />
          </mxGeometry>
        </mxCell>
        <mxCell id="Vo_8tZld1M_HLgyAk7s2-143" value="" style="endArrow=classic;html=1;rounded=0;shadow=1;strokeWidth=2;sketch=1;curveFitting=1;jiggle=2;exitX=0.5;exitY=1;exitDx=0;exitDy=0;entryX=0.5;entryY=0;entryDx=0;entryDy=0;fillColor=#b0e3e6;strokeColor=#0e8088;" edge="1" parent="1" source="Vo_8tZld1M_HLgyAk7s2-140" target="Vo_8tZld1M_HLgyAk7s2-126">
          <mxGeometry width="50" height="50" relative="1" as="geometry">
            <mxPoint x="530" y="1990" as="sourcePoint" />
            <mxPoint x="330" y="2090" as="targetPoint" />
          </mxGeometry>
        </mxCell>
        <mxCell id="Vo_8tZld1M_HLgyAk7s2-144" value="" style="endArrow=classic;html=1;rounded=0;shadow=1;strokeWidth=2;sketch=1;curveFitting=1;jiggle=2;exitX=0.5;exitY=1;exitDx=0;exitDy=0;entryX=0.5;entryY=0;entryDx=0;entryDy=0;fillColor=#b0e3e6;strokeColor=#0e8088;" edge="1" parent="1" source="Vo_8tZld1M_HLgyAk7s2-140" target="Vo_8tZld1M_HLgyAk7s2-130">
          <mxGeometry width="50" height="50" relative="1" as="geometry">
            <mxPoint x="530" y="1990" as="sourcePoint" />
            <mxPoint x="410" y="2090" as="targetPoint" />
          </mxGeometry>
        </mxCell>
        <mxCell id="Vo_8tZld1M_HLgyAk7s2-145" value="" style="endArrow=classic;html=1;rounded=0;shadow=1;strokeWidth=2;sketch=1;curveFitting=1;jiggle=2;entryX=0.5;entryY=0;entryDx=0;entryDy=0;exitX=0.5;exitY=1;exitDx=0;exitDy=0;fillColor=#b0e3e6;strokeColor=#0e8088;" edge="1" parent="1" source="Vo_8tZld1M_HLgyAk7s2-140" target="Vo_8tZld1M_HLgyAk7s2-132">
          <mxGeometry width="50" height="50" relative="1" as="geometry">
            <mxPoint x="470" y="1950" as="sourcePoint" />
            <mxPoint x="490" y="2090" as="targetPoint" />
          </mxGeometry>
        </mxCell>
        <mxCell id="Vo_8tZld1M_HLgyAk7s2-146" value="" style="endArrow=classic;html=1;rounded=0;shadow=1;strokeWidth=2;sketch=1;curveFitting=1;jiggle=2;entryX=0.5;entryY=0;entryDx=0;entryDy=0;exitX=0.5;exitY=1;exitDx=0;exitDy=0;fillColor=#b0e3e6;strokeColor=#0e8088;" edge="1" parent="1" source="Vo_8tZld1M_HLgyAk7s2-140" target="Vo_8tZld1M_HLgyAk7s2-133">
          <mxGeometry width="50" height="50" relative="1" as="geometry">
            <mxPoint x="460" y="1900" as="sourcePoint" />
            <mxPoint x="570" y="2090" as="targetPoint" />
          </mxGeometry>
        </mxCell>
        <mxCell id="Vo_8tZld1M_HLgyAk7s2-147" value="" style="endArrow=classic;html=1;rounded=0;shadow=1;strokeWidth=2;sketch=1;curveFitting=1;jiggle=2;entryX=0.5;entryY=0;entryDx=0;entryDy=0;exitX=0.5;exitY=1;exitDx=0;exitDy=0;fillColor=#b0e3e6;strokeColor=#0e8088;" edge="1" parent="1" source="Vo_8tZld1M_HLgyAk7s2-140" target="Vo_8tZld1M_HLgyAk7s2-134">
          <mxGeometry width="50" height="50" relative="1" as="geometry">
            <mxPoint x="470" y="1950" as="sourcePoint" />
            <mxPoint x="650" y="2090" as="targetPoint" />
          </mxGeometry>
        </mxCell>
        <mxCell id="Vo_8tZld1M_HLgyAk7s2-148" value="" style="endArrow=classic;html=1;rounded=0;shadow=1;strokeWidth=2;sketch=1;curveFitting=1;jiggle=2;entryX=0.5;entryY=0;entryDx=0;entryDy=0;exitX=0.5;exitY=1;exitDx=0;exitDy=0;fillColor=#b0e3e6;strokeColor=#0e8088;" edge="1" parent="1" source="Vo_8tZld1M_HLgyAk7s2-140" target="Vo_8tZld1M_HLgyAk7s2-138">
          <mxGeometry width="50" height="50" relative="1" as="geometry">
            <mxPoint x="510" y="1920" as="sourcePoint" />
            <mxPoint x="770" y="2060" as="targetPoint" />
          </mxGeometry>
        </mxCell>
        <mxCell id="Vo_8tZld1M_HLgyAk7s2-150" value="" style="endArrow=classic;html=1;rounded=0;shadow=1;sketch=1;strokeWidth=2;fontSize=15;exitX=1;exitY=0.5;exitDx=0;exitDy=0;entryX=0;entryY=0.5;entryDx=0;entryDy=0;fontStyle=1" edge="1" parent="1" source="Vo_8tZld1M_HLgyAk7s2-124" target="Vo_8tZld1M_HLgyAk7s2-125">
          <mxGeometry width="50" height="50" relative="1" as="geometry">
            <mxPoint x="160" y="1920" as="sourcePoint" />
            <mxPoint x="210" y="1870" as="targetPoint" />
          </mxGeometry>
        </mxCell>
        <mxCell id="Vo_8tZld1M_HLgyAk7s2-151" value="" style="endArrow=classic;html=1;rounded=0;shadow=1;sketch=1;strokeWidth=2;fontSize=15;exitX=1;exitY=0.5;exitDx=0;exitDy=0;entryX=0;entryY=0.5;entryDx=0;entryDy=0;fontStyle=1" edge="1" parent="1" source="Vo_8tZld1M_HLgyAk7s2-126" target="Vo_8tZld1M_HLgyAk7s2-130">
          <mxGeometry width="50" height="50" relative="1" as="geometry">
            <mxPoint x="170" y="2130" as="sourcePoint" />
            <mxPoint x="210" y="2130" as="targetPoint" />
          </mxGeometry>
        </mxCell>
        <mxCell id="Vo_8tZld1M_HLgyAk7s2-152" value="" style="endArrow=classic;html=1;rounded=0;shadow=1;sketch=1;strokeWidth=2;fontSize=15;exitX=1;exitY=0.5;exitDx=0;exitDy=0;entryX=0;entryY=0.5;entryDx=0;entryDy=0;fontStyle=1" edge="1" parent="1" source="Vo_8tZld1M_HLgyAk7s2-132" target="Vo_8tZld1M_HLgyAk7s2-133">
          <mxGeometry width="50" height="50" relative="1" as="geometry">
            <mxPoint x="450" y="2130" as="sourcePoint" />
            <mxPoint x="490" y="2130" as="targetPoint" />
          </mxGeometry>
        </mxCell>
        <mxCell id="Vo_8tZld1M_HLgyAk7s2-153" value="" style="endArrow=classic;html=1;rounded=0;shadow=1;sketch=1;strokeWidth=2;fontSize=15;exitX=1;exitY=0.5;exitDx=0;exitDy=0;entryX=0;entryY=0.5;entryDx=0;entryDy=0;fontStyle=1" edge="1" parent="1" source="Vo_8tZld1M_HLgyAk7s2-133" target="Vo_8tZld1M_HLgyAk7s2-134">
          <mxGeometry width="50" height="50" relative="1" as="geometry">
            <mxPoint x="730" y="2130" as="sourcePoint" />
            <mxPoint x="770" y="2130" as="targetPoint" />
          </mxGeometry>
        </mxCell>
        <mxCell id="Vo_8tZld1M_HLgyAk7s2-155" value="map[频次]val" style="rounded=1;whiteSpace=wrap;html=1;strokeWidth=2;fillWeight=4;hachureGap=8;hachureAngle=45;fillColor=#f8cecc;strokeColor=#b85450;fontSize=15;fontStyle=1" vertex="1" parent="1">
          <mxGeometry x="720" y="1880" width="160" height="60" as="geometry" />
        </mxCell>
        <mxCell id="Vo_8tZld1M_HLgyAk7s2-156" value="" style="endArrow=classic;html=1;rounded=0;shadow=1;strokeWidth=2;sketch=1;curveFitting=1;jiggle=2;exitX=0.5;exitY=1;exitDx=0;exitDy=0;entryX=0.5;entryY=0;entryDx=0;entryDy=0;fillColor=#fad9d5;strokeColor=#ae4132;" edge="1" parent="1" source="Vo_8tZld1M_HLgyAk7s2-155" target="Vo_8tZld1M_HLgyAk7s2-124">
          <mxGeometry width="50" height="50" relative="1" as="geometry">
            <mxPoint x="450" y="1949.9999999999995" as="sourcePoint" />
            <mxPoint x="129.99999999999977" y="2089.9999999999995" as="targetPoint" />
          </mxGeometry>
        </mxCell>
        <mxCell id="Vo_8tZld1M_HLgyAk7s2-157" value="" style="endArrow=classic;html=1;rounded=0;shadow=1;strokeWidth=2;sketch=1;curveFitting=1;jiggle=2;exitX=0.5;exitY=1;exitDx=0;exitDy=0;fillColor=#fad9d5;strokeColor=#ae4132;" edge="1" parent="1" source="Vo_8tZld1M_HLgyAk7s2-155">
          <mxGeometry width="50" height="50" relative="1" as="geometry">
            <mxPoint x="810" y="1949.9999999999995" as="sourcePoint" />
            <mxPoint x="400" y="2080" as="targetPoint" />
            <Array as="points">
              <mxPoint x="400" y="2080" />
            </Array>
          </mxGeometry>
        </mxCell>
        <mxCell id="Vo_8tZld1M_HLgyAk7s2-159" value="" style="endArrow=classic;html=1;rounded=0;shadow=1;sketch=1;strokeWidth=2;fontSize=15;fillColor=#f8cecc;strokeColor=#b85450;" edge="1" parent="1">
          <mxGeometry width="50" height="50" relative="1" as="geometry">
            <mxPoint x="800" y="1940" as="sourcePoint" />
            <mxPoint x="680" y="2080" as="targetPoint" />
          </mxGeometry>
        </mxCell>
        <mxCell id="Vo_8tZld1M_HLgyAk7s2-160" value="" style="endArrow=classic;html=1;rounded=0;shadow=1;sketch=1;strokeWidth=2;fontSize=15;fillColor=#f8cecc;strokeColor=#b85450;" edge="1" parent="1">
          <mxGeometry width="50" height="50" relative="1" as="geometry">
            <mxPoint x="800" y="1940" as="sourcePoint" />
            <mxPoint x="1080" y="2080" as="targetPoint" />
          </mxGeometry>
        </mxCell>
        <mxCell id="Vo_8tZld1M_HLgyAk7s2-168" value="1" style="ellipse;whiteSpace=wrap;html=1;strokeWidth=2;fillWeight=2;hachureGap=8;fillColor=#fff2cc;fillStyle=auto;fontSize=15;strokeColor=#d6b656;fontStyle=1" vertex="1" parent="1">
          <mxGeometry x="1080" y="-40" width="40" height="40" as="geometry" />
        </mxCell>
        <mxCell id="Vo_8tZld1M_HLgyAk7s2-169" value="2" style="ellipse;whiteSpace=wrap;html=1;strokeWidth=2;fillWeight=2;hachureGap=8;fillColor=#fff2cc;fillStyle=auto;fontSize=15;strokeColor=#d6b656;fontStyle=1" vertex="1" parent="1">
          <mxGeometry x="1080" y="240" width="40" height="40" as="geometry" />
        </mxCell>
        <mxCell id="Vo_8tZld1M_HLgyAk7s2-170" value="3" style="ellipse;whiteSpace=wrap;html=1;strokeWidth=2;fillWeight=2;hachureGap=8;fillColor=#fff2cc;fillStyle=auto;fontSize=15;strokeColor=#d6b656;fontStyle=1" vertex="1" parent="1">
          <mxGeometry x="1080" y="640" width="40" height="40" as="geometry" />
        </mxCell>
        <mxCell id="Vo_8tZld1M_HLgyAk7s2-171" value="4" style="ellipse;whiteSpace=wrap;html=1;strokeWidth=2;fillWeight=2;hachureGap=8;fillColor=#fff2cc;fillStyle=auto;fontSize=15;strokeColor=#d6b656;fontStyle=1" vertex="1" parent="1">
          <mxGeometry x="1080" y="1200" width="40" height="40" as="geometry" />
        </mxCell>
        <mxCell id="Vo_8tZld1M_HLgyAk7s2-172" value="5" style="ellipse;whiteSpace=wrap;html=1;strokeWidth=2;fillWeight=2;hachureGap=8;fillColor=#fff2cc;fillStyle=auto;fontSize=15;strokeColor=#d6b656;fontStyle=1" vertex="1" parent="1">
          <mxGeometry x="1080" y="1840" width="40" height="40" as="geometry" />
        </mxCell>
      </root>
    </mxGraphModel>
  </diagram>
</mxfile>
